HIERARCHY
ROOT Hips
{
  OFFSET -35.4901 99.2528 17.4586
  CHANNELS 6 Xposition Yposition Zposition Zrotation Xrotation Yrotation
  JOINT LeftUpLeg
  {
    OFFSET 8.64259 1.95398 -2.38835
    CHANNELS 3 Zrotation Xrotation Yrotation
    JOINT LeftLeg
    {
      OFFSET 43.7702 0 0
      CHANNELS 3 Zrotation Xrotation Yrotation
      JOINT LeftFoot
      {
        OFFSET 40.6238 0 0
        CHANNELS 3 Zrotation Xrotation Yrotation
        JOINT LeftToeBase
        {
          OFFSET 12.7242 0 0
          CHANNELS 3 Zrotation Xrotation Yrotation
          End Site
          {
            OFFSET 0 0 0
          }
        }
      }
    }
  }
  JOINT RightUpLeg
  {
    OFFSET -8.2249 1.95398 -2.59336
    CHANNELS 3 Zrotation Xrotation Yrotation
    JOINT RightLeg
    {
      OFFSET 43.5653 0 0
      CHANNELS 3 Zrotation Xrotation Yrotation
      JOINT RightFoot
      {
        OFFSET 40.6238 0 0
        CHANNELS 3 Zrotation Xrotation Yrotation
        JOINT RightToeBase
        {
          OFFSET 12.7242 0 0
          CHANNELS 3 Zrotation Xrotation Yrotation
          End Site
          {
            OFFSET 0 0 0
          }
        }
      }
    }
  }
  JOINT Spine
  {
    OFFSET 0.165834 0.87714 6.61349
    CHANNELS 3 Zrotation Xrotation Yrotation
    JOINT Spine1
    {
      OFFSET 7.38963 1.71661e-005 0
      CHANNELS 3 Zrotation Xrotation Yrotation
      JOINT Spine2
      {
        OFFSET 11.9445 1.14441e-005 0
        CHANNELS 3 Zrotation Xrotation Yrotation
        JOINT Spine3
        {
          OFFSET 14.7254 4.19617e-005 0
          CHANNELS 3 Zrotation Xrotation Yrotation
          JOINT Spine4
          {
            OFFSET 10.9679 0 0
            CHANNELS 3 Zrotation Xrotation Yrotation
            JOINT RightShoulder
            {
              OFFSET 2.46616 -1.6653 3.69651
              CHANNELS 3 Zrotation Xrotation Yrotation
              JOINT RightArm
              {
                OFFSET 13.0012 0 0
                CHANNELS 3 Zrotation Xrotation Yrotation
                JOINT RightForeArm
                {
                  OFFSET 28.7848 1.52588e-005 0
                  CHANNELS 3 Zrotation Xrotation Yrotation
                  JOINT RightHand
                  {
                    OFFSET 26.5688 1.52588e-005 0
                    CHANNELS 3 Zrotation Xrotation Yrotation
                    End Site
                    {
                      OFFSET 0 0 0
                    }
                  }
                }
              }
            }
            JOINT LeftShoulder
            {
              OFFSET 2.38034 -1.29275 -3.7523
              CHANNELS 3 Zrotation Xrotation Yrotation
              JOINT LeftArm
              {
                OFFSET 16.3182 6.10351e-005 0
                CHANNELS 3 Zrotation Xrotation Yrotation
                JOINT LeftForeArm
                {
                  OFFSET 27.0901 0 0
                  CHANNELS 3 Zrotation Xrotation Yrotation
                  JOINT LeftHand
                  {
                    OFFSET 24.5451 1.52588e-005 0
                    CHANNELS 3 Zrotation Xrotation Yrotation
                    End Site
                    {
                      OFFSET 0 0 0
                    }
                  }
                }
              }
            }
            JOINT Neck
            {
              OFFSET 5.0226 -0.0266342 0
              CHANNELS 3 Zrotation Xrotation Yrotation
              JOINT Head
              {
                OFFSET 6.69364 2.86102e-005 0
                CHANNELS 3 Zrotation Xrotation Yrotation
                End Site
                {
                  OFFSET 0 0 0
                }
              }
            }
          }
        }
      }
    }
  }
}
MOTION
Frames:	18
Frame Time:	0.0416667
-296.794 87.0076 -248.04 -110.525 53.5115 -77.0896 -170.198 23.3417 87.9458 -60.9626 11.6682 -2.50548 79.3139 9.25949 3.07959 22.5575 2.1265 -2.65519 178.813 18.9904 77.1668 -91.9096 -6.5414 -2.95867 75.3907 -8.3792 -4.1746 14.8146 -1.70826 4.86863 -0.319031 7.94894 -89.8607 10.9768 -0.570552 0.331598 -0.694035 -0.555403 0.356386 -23.2301 -0.643828 0.144789 -3.21746 -0.643843 0.144786 93.5637 -27.6569 -100.306 36.0699 5.4682 5.94196 -59.5775 -7.12193 -91.9698 -16.3832 -0.075002 -18.2448 -83.613 -46.1381 87.908 -17.5697 37.2305 0.26213 44.6687 -10.598 -81.2961 -11.5666 0.802538 -15.4424 21.6035 3.34953 -3.56957 -13.3436 4.11919 2.93995 
-291.707 88.1689 -241.31 -113.29 52.9665 -72.9258 -171.765 25.4526 89.1747 -55.035 9.05527 -2.14913 70.6952 5.36411 2.77346 20.5651 3.83394 -4.85111 176.219 2.03535 76.6316 -83.9961 -14.2252 -4.82991 78.5309 -9.91609 -4.03922 14.7867 -2.05706 5.51691 1.04308 7.80528 -90.0429 11.2664 2.05603 -0.28883 -0.403084 2.04134 -0.379073 -22.9498 2.04774 0.342628 -2.93716 2.04773 0.342617 93.8049 -21.3731 -101.917 32.7283 9.2109 5.08409 -49.7011 -3.48595 -94.4259 -27.0007 0.547393 -13.9632 -81.7184 -42.9696 90.6452 -32.5879 36.4633 27.568 40.3444 -20.5959 -90.6025 -14.316 1.59654 -20.4872 14.9619 -2.34488 -3.10023 -10.0501 -1.4515 0.325084 
-285.083 92.2093 -233.864 -117.281 53.4083 -69.0582 -174.726 16.8373 91.0072 -28.0076 10.1784 -1.9486 51.3021 -2.45927 1.4263 21.179 3.53546 -4.38002 174.684 -11.3974 79.8543 -66.1235 -24.4049 -8.3549 80.5122 -9.81679 -0.56381 17.8007 -1.49093 4.37163 2.30066 7.62326 -90.288 11.6557 4.44108 -1.03782 -0.00804084 4.39107 -1.23263 -22.6055 4.54724 0.347736 -2.59282 4.54725 0.347733 94.9659 -11.5791 -102.948 35.0557 6.40443 9.38939 -45.0309 -4.56923 -91.5905 -32.6314 0.113418 -9.80368 -80.5741 -42.1169 92.4783 -28.7347 36.2172 37.4201 36.3292 -26.0987 -97.6353 -11.1301 1.22248 -21.5033 5.20512 -5.8391 -0.530519 -9.15291 -5.48788 -2.90628 
-275.879 94.0297 -224.429 -109.491 53.4659 -73.6674 -176.724 21.3267 93.599 -17.8824 21.1003 -0.517537 51.2987 -2.97266 -0.0191061 11.6631 -3.14019 4.90985 173.485 -6.67329 84.9685 -52.775 -19.0197 -5.2691 78.6228 -9.26431 -2.79188 17.1079 -2.92273 7.27678 2.10185 7.05179 -90.3556 12.799 4.00414 -1.18769 1.13355 3.94797 -1.36301 -21.4515 4.17569 0.0727021 -1.4389 4.17567 0.0727079 94.4958 -11.6743 -104.172 34.4731 -0.299686 11.8872 -41.4027 -6.59335 -86.6444 -37.255 0.100495 -8.64176 -81.4948 -42.6763 90.9856 -24.5768 31.7856 34.1797 36.1704 -24.6454 -97.9878 -9.21015 0.852942 -20.0175 5.08079 -5.58524 -2.01459 -11.6447 -5.02157 -1.38447 
-265.796 91.3973 -214.721 -107.773 49.8149 -76.5287 -174.366 32.2578 93.4917 -46.6164 23.333 0.0467144 62.4371 1.48181 4.50652 20.2657 1.5547 -1.52773 174.418 2.29319 87.0574 -55.683 -13.6722 -3.90258 82.7404 -11.8125 -6.74134 29.1914 -3.79868 10.3091 1.06389 7.61232 -90.1271 11.6551 2.05666 -0.467691 -0.0143526 2.03408 -0.557799 -22.5626 2.10211 0.172313 -2.54994 2.10211 0.172316 93.8463 -16.71 -103.577 36.6354 -2.64559 16.9687 -36.5693 -8.60602 -81.8941 -34.6392 0.853161 -11.1753 -84.7125 -47.3441 86.3317 -12.0293 29.5346 15.1433 38.4505 -21.9262 -96.0372 -6.75028 0.497061 -19.6516 18.7367 -2.54398 -0.996336 -16.1596 -1.72147 -3.60932 
-256.092 87.8774 -204.414 -108.995 47.8345 -78.2256 -167.233 35.9417 91.9973 -77.674 10.4209 1.09442 71.6312 5.97024 3.12181 23.6021 2.19023 -2.90132 174.953 12.1484 84.9299 -62.3075 -14.0696 -4.0418 93.6156 -16.3567 -3.00649 17.7345 -0.337149 1.87083 -0.152419 8.05832 -89.6823 10.76 -0.156821 0.644934 -0.911061 -0.128295 0.651204 -23.4462 -0.343409 0.567991 -3.43351 -0.343401 0.567991 93.978 -19.8616 -101.984 44.264 -10.3874 25.8004 -37.6532 -12.4039 -71.9478 -29.577 0.730089 -12.3335 -84.8951 -46.9282 86.0021 4.67682 24.5868 -10.0482 31.1977 -19.5947 -97.9046 -8.9421 0.793781 -19.6265 23.0175 1.29652 -6.14273 -15.8753 3.08203 2.12643 
-247.994 87.5379 -196.27 -110.342 47.7872 -74.6344 -163.639 26.2932 99.2768 -90.9749 5.68695 3.78152 68.1421 4.56349 2.88836 21.8931 3.18336 -4.13468 175.922 20.2187 89.3146 -63.0318 -17.3575 -2.78899 84.4428 -13.2959 -7.40909 14.8123 -0.98938 3.45294 -1.15233 8.14156 -89.7711 10.5963 -2.18992 0.653881 -1.07314 -2.15902 0.749653 -23.622 -2.2851 -0.0348114 -3.60938 -2.28509 -0.0348126 95.7001 -18.8807 -98.1616 56.0508 -11.046 40.6612 -46.9464 -12.9826 -73.4042 -22.3178 0.97306 -18.3664 -83.351 -41.5497 87.7303 8.37451 12.6533 -24.4119 27.5306 -16.4849 -99.6704 -8.83216 0.868067 -21.4472 21.0097 5.64018 -7.16136 -13.4309 7.45422 2.96723 
-241.557 91.6796 -188.534 -117.466 45.365 -69.25 -165.541 -0.380676 103.189 -78.4468 18.1082 5.32415 62.596 2.06225 5.19924 25.0072 3.64818 -5.4182 176.393 15.5966 89.73 -48.8651 -17.0631 -3.70466 67.5691 -4.1932 -5.53273 14.9195 -1.69625 4.86623 -2.62008 8.35516 -89.5767 10.1942 -5.02754 1.25998 -1.46801 -4.96722 1.48051 -24.08 -5.17321 -0.313212 -4.06738 -5.17321 -0.313219 98.0665 -14.3846 -93.2785 66.3611 -16.4059 53.1916 -48.0693 -2.60043 -73.8797 -18.2998 1.53723 -24.9122 -84.4613 -31.0493 84.1633 5.36425 9.86074 -22.2275 25.3053 -15.5398 -100.455 -6.12986 0.417581 -19.5208 9.92646 11.2766 -8.36143 -11.5429 12.18 9.32724 
-234.633 95.6996 -178.675 -115.405 48.9903 -69.0079 -170.708 -11.8582 95.1761 -57.3404 19.48 4.03622 66.7 3.7537 5.40952 24.6526 2.11012 -2.92751 176.842 12.8802 90.3249 -23.7861 -25.1262 -4.47248 53.236 2.24558 2.726 17.627 0.154058 0.993819 -2.71675 7.70438 -90.1973 11.4808 -5.49734 0.166934 -0.178517 -5.48462 0.409454 -22.8025 -5.2926 -1.49771 -2.78986 -5.2926 -1.49771 96.1698 -12.8166 -99.0129 62.2087 -1.49978 60.3531 -41.2675 -0.0832767 -77.9618 -16.1983 2.14686 -31.1661 -83.6207 -26.3697 84.9592 7.40193 18.2825 -29.6418 32.3095 -18.053 -96.3945 -7.02086 0.437104 -17.3144 2.63903 13.7495 -4.24951 -14.6373 13.0043 12.2041 
-225.823 95.1165 -166.953 -107.333 53.5228 -73.7829 -174.022 -4.44793 90.0157 -49.0067 14.4982 2.01581 68.4354 4.22344 1.6888 34.9746 1.58881 -3.83511 179.638 23.9165 89.9021 -37.7456 -23.1079 -4.91803 66.5288 -3.37663 0.451502 15.7419 0.289709 0.9099 -1.93211 7.18636 -90.9065 12.4795 -4.27002 -1.32249 0.815041 -4.32407 -1.13297 -21.759 -3.67509 -2.54597 -1.74632 -3.6751 -2.54598 94.7877 -17.3598 -101.044 53.4129 6.21723 52.6389 -41.1893 -5.27715 -83.8062 -23.2383 3.04929 -27.8353 -84.3874 -34.5807 84.9551 6.13089 23.7086 -25.9453 32.5387 -21.0727 -99.1859 -3.86947 0.117456 -19.602 7.16645 13.3778 -1.72136 -14.2985 12.5419 10.1802 
-216.497 92.1124 -154.876 -113.048 54.0911 -67.6278 -172.393 2.01715 92.4281 -53.2496 11.1868 0.76808 81.5453 9.92383 1.58015 37.0784 3.55797 -7.98435 179.074 26.7318 87.8853 -70.7611 -9.58635 -2.9611 75.7322 -7.41243 0.157665 17.4079 -0.133611 1.59825 -1.27209 7.86792 -90.779 11.1216 -2.89306 -1.2633 -0.546611 -2.94585 -1.13468 -23.0952 -2.37966 -2.0746 -3.08256 -2.37966 -2.07461 92.1584 -28.5176 -102.934 42.2242 8.22773 30.683 -43.8981 -4.87489 -91.5705 -26.159 1.99143 -21.0609 -84.0815 -43.8799 86.8844 -2.63302 30.0174 -7.04779 27.1587 -21.9884 -102.413 -6.50501 0.448416 -19.629 18.7756 10.6979 -8.625 -18.0415 11.7276 9.11334 
-208.059 89.9642 -143.6 -110.849 52.428 -69.8734 -172.462 15.3895 92.6928 -59.537 11.6626 0.42115 84.4415 11.1717 0.525563 23.0268 3.8399 -5.33319 174.542 22.5204 82.5703 -92.1752 -6.35461 -1.55529 74.0241 -7.49891 -2.50544 13.521 -0.535118 2.67103 -0.498061 7.75414 -90.6728 11.3588 -1.30501 -1.21368 -0.311899 -1.35716 -1.15506 -22.8462 -0.879947 -1.54971 -2.83353 -0.879975 -1.54973 96.1027 -27.9607 -94.8074 37.7869 7.07211 3.82177 -53.1161 0.601364 -100.396 -22.8987 0.600661 -16.4861 -81.6451 -45.9675 91.0024 -26.4459 25.6763 23.0959 29.624 -22.5214 -102.806 -11.5559 1.31184 -21.4354 21.9021 5.58169 -8.34776 -17.9578 7.34429 5.99075 
-201.354 91.9511 -134.32 -115.652 48.3107 -65.3538 -172.009 16.2617 92.9966 -51.7979 22.2713 0.282273 71.8629 6.4271 6.7296 20.899 5.14399 -6.79418 169.149 0.145158 77.4333 -86.4678 -15.6589 -2.13957 65.2909 -3.54818 -4.66707 14.5281 -1.32935 4.14297 0.796294 7.76983 -90.8 11.3411 1.21168 -1.7143 -0.330484 1.13505 -1.76595 -22.8646 1.67083 -1.27095 -2.85196 1.6708 -1.27096 95.9609 -20.9353 -96.9272 27.8763 17.5822 -1.31753 -47.3399 2.15479 -105.636 -29.5347 0.711836 -13.8773 -79.9347 -40.3106 93.4559 -39.7966 22.6439 49.5953 27.241 -27.8148 -110.297 -12.1296 1.8274 -26.5601 16.495 -0.967487 -8.75997 -13.4507 1.09317 4.51202 
-193.656 96.7087 -124.826 -115.185 45.8156 -66.2499 -175.749 10.2289 92.002 -23.5408 22.4982 0.0642085 52.5536 -2.83172 2.60136 20.6952 3.3616 -4.12189 169.1 -19.3687 83.0996 -59.926 -22.2018 -3.41668 62.5715 -1.67182 -0.644528 16.5957 -1.80899 5.04159 2.35296 7.32266 -90.5649 12.2783 4.40774 -1.64199 0.613815 4.33119 -1.83471 -21.9835 4.69709 -0.238535 -1.97085 4.69709 -0.238535 97.4782 -8.37564 -96.8381 24.1157 18.6456 9.11432 -41.6144 1.91343 -107.486 -30.1278 0.720642 -12.7658 -80.8958 -30.8467 91.0093 -37.5684 27.536 57.7801 24.3203 -31.7743 -116.16 -8.543 1.15598 -27.2782 10.8543 -9.07571 -8.84445 -12.5606 -6.72039 -1.24924 
-183.384 97.7152 -114.138 -102.696 41.4349 -76.2812 -177.562 17.4761 91.6769 -11.997 24.4387 -0.49388 52.7394 -2.51029 -2.86485 24.8 -2.44419 4.12282 173.319 -20.6147 93.6285 -37.1332 -12.7201 -0.413704 66.7188 -2.93437 -1.73179 16.8016 -1.82968 4.95466 2.19102 6.51155 -89.6826 13.8601 4.49885 0.0392672 2.19697 4.49621 -0.15919 -20.3963 4.27862 1.39204 -0.383657 4.27859 1.39203 96.9527 -4.93053 -99.8454 21.5273 13.0339 15.3735 -43.4755 4.42032 -108.114 -30.4842 0.589328 -12.3042 -81.734 -26.0698 88.8516 -27.4813 24.8075 55.5852 23.3133 -30.9958 -119.766 -5.5109 0.601505 -28.6426 12.8175 -14.1551 -12.8582 -14.7163 -10.2797 -3.60992 
-172.058 95.216 -101.792 -101.227 37.4656 -79.6027 -177.384 30.4146 90.8019 -44.8695 21.2375 1.72876 67.6043 3.81266 0.358915 23.3308 0.0552269 0.422151 173.817 -12.4055 96.0988 -36.6194 -5.88689 1.14156 72.1556 -5.44357 -4.35212 29.8161 -3.87951 10.9967 1.62597 7.10873 -89.2506 12.6428 3.58707 1.08005 0.976514 3.63112 0.920939 -21.5865 3.09657 2.10896 -1.57388 3.09656 2.10895 96.0621 -10.8816 -100.235 26.6301 6.68143 17.365 -46.0254 11.0375 -111.369 -32.9313 0.135741 -9.79309 -82.6047 -36.2707 88.4191 -13.6967 25.8541 35.6443 24.926 -27.0833 -114.199 -2.89359 0.00773239 -25.0819 25.0423 -15.438 -8.70684 -16.9753 -11.0579 -6.1734 
-161.144 91.3595 -88.454 -107.179 39.1695 -79.2218 -173.426 31.55 91.4465 -75.5554 12.7773 3.95177 74.7803 7.03881 1.7297 21.1214 0.720611 -0.411003 170.978 -1.97492 88.887 -50.5883 -10.9708 -0.707257 89.2417 -13.688 -1.35087 28.5224 -2.83714 7.64411 0.949293 7.8932 -89.0958 11.0701 2.3091 1.57665 -0.599668 2.37622 1.47346 -23.1374 1.72862 2.19767 -3.12477 1.7286 2.19766 94.7629 -17.7591 -100.859 41.9365 -9.86141 20.2952 -50.8327 13.5908 -101.534 -30.9598 0.0946895 -9.6579 -84.0785 -47.9786 87.3954 -6.93769 24.7428 9.97583 27.4455 -21.774 -104.157 -4.73689 0.282384 -22.2926 26.507 -10.0092 -5.57902 -14.8017 -6.89129 -5.99871 
-151.327 88.733 -76.3504 -106.353 42.8136 -77.4467 -169.896 26.8716 101.095 -92.1595 10.5552 6.55811 70.9536 5.68564 4.67559 25.2308 3.17342 -4.66246 170.915 15.0613 88.7098 -59.7478 -15.1745 0.342908 89.2696 -14.2665 -1.66262 18.341 -3.18674 7.90964 -0.0947742 7.85921 -89.3091 11.1503 0.132191 1.36114 -0.521455 0.191956 1.35401 -23.0495 -0.282943 1.33796 -3.03691 -0.282939 1.33796 95.3495 -23.128 -97.691 56.2108 -19.7421 30.5943 -51.3721 10.7388 -89.9476 -27.9412 0.69955 -12.9208 -84.0489 -54.9669 88.2189 1.57054 21.3154 -22.9638 25.5453 -18.3433 -101.544 -5.1043 0.33625 -21.8168 28.7394 -3.53592 -8.46195 -15.6998 0.182487 -2.1269 
